<?xml version="1.0" encoding="iso-8859-1"?>
<!-- Generator: Adobe Illustrator 19.0.0, SVG Export Plug-In . SVG Version: 6.00 Build 0)  -->
<svg version="1.1" id="Capa_1" xmlns="http://www.w3.org/2000/svg" xmlns:xlink="http://www.w3.org/1999/xlink" x="0px" y="0px"
	 viewBox="0 0 512 512" style="enable-background:new 0 0 512 512;" xml:space="preserve">
<g>
	<g>
		<path d="M339.062,60.817H228.938c-7.628,0-13.834,6.206-13.834,13.834v99.816c-4.47-2.616-9.666-4.123-15.208-4.123
			c-16.658,0-30.21,13.552-30.21,30.209c0,16.657,13.552,30.209,30.21,30.209c16.657,0,30.209-13.552,30.209-30.209v-86.423h107.95
			v60.338c-4.47-2.616-9.666-4.123-15.208-4.123c-16.657,0-30.209,13.552-30.209,30.209c0,16.657,13.552,30.209,30.209,30.209
			c16.657,0,30.209-13.552,30.209-30.209V74.81C353.056,67.093,346.778,60.817,339.062,60.817z M199.896,215.759
			c-8.387,0-15.209-6.822-15.209-15.208s6.822-15.208,15.209-15.208c8.385,0,15.208,6.822,15.208,15.208
			S208.282,215.759,199.896,215.759z M230.105,99.127V75.818h107.95v23.309H230.105z M322.848,215.759
			c-8.385,0-15.208-6.822-15.208-15.208s6.822-15.208,15.208-15.208c8.386,0,15.208,6.822,15.208,15.208
			S331.232,215.759,322.848,215.759z"/>
	</g>
</g>
<g>
	<g>
		<path d="M254.433,317.548h-97.159c-4.143,0-7.5,3.358-7.5,7.5c0,4.142,3.357,7.5,7.5,7.5h97.159c4.143,0,7.5-3.358,7.5-7.5
			C261.934,320.906,258.577,317.548,254.433,317.548z"/>
	</g>
</g>
<g>
	<g>
		<path d="M254.433,355.123h-97.159c-4.143,0-7.5,3.358-7.5,7.5c0,4.142,3.357,7.5,7.5,7.5h97.159c4.143,0,7.5-3.358,7.5-7.5
			C261.934,358.482,258.577,355.123,254.433,355.123z"/>
	</g>
</g>
<g>
	<g>
		<path d="M254.433,392.698h-97.159c-4.143,0-7.5,3.358-7.5,7.5s3.357,7.5,7.5,7.5h97.159c4.143,0,7.5-3.358,7.5-7.5
			S258.577,392.698,254.433,392.698z"/>
	</g>
</g>
<g>
	<g>
		<path d="M387.082,317.548h-97.16c-4.143,0-7.5,3.358-7.5,7.5c0,4.142,3.357,7.5,7.5,7.5h97.16c4.143,0,7.5-3.358,7.5-7.5
			C394.583,320.906,391.226,317.548,387.082,317.548z"/>
	</g>
</g>
<g>
	<g>
		<path d="M322.132,267.227h-97.16c-4.143,0-7.5,3.358-7.5,7.5c0,4.142,3.357,7.5,7.5,7.5h97.16c4.142,0,7.5-3.358,7.5-7.5
			C329.632,270.585,326.275,267.227,322.132,267.227z"/>
	</g>
</g>
<g>
	<g>
		<path d="M387.082,355.123h-97.16c-4.143,0-7.5,3.358-7.5,7.5c0,4.142,3.357,7.5,7.5,7.5h97.16c4.143,0,7.5-3.358,7.5-7.5
			C394.583,358.482,391.226,355.123,387.082,355.123z"/>
	</g>
</g>
<g>
	<g>
		<path d="M254.433,430.273h-97.159c-4.143,0-7.5,3.358-7.5,7.5c0,4.142,3.357,7.5,7.5,7.5h97.159c4.143,0,7.5-3.358,7.5-7.5
			C261.934,433.631,258.577,430.273,254.433,430.273z"/>
	</g>
</g>
<g>
	<g>
		<path d="M444.04,0H289.235c-4.143,0-7.5,3.358-7.5,7.5c0,4.142,3.357,7.5,7.5,7.5H444.04c4.444,0,8.061,3.616,8.061,8.06v215.437
			c0,4.142,3.357,7.5,7.5,7.5c4.143,0,7.5-3.358,7.5-7.5V23.061C467.102,10.346,456.757,0,444.04,0z"/>
	</g>
</g>
<g>
	<g>
		<path d="M459.602,266c-4.143,0-7.5,3.358-7.5,7.5v119.197c-4.693,0-151.358,0-162.179,0c-4.143,0-7.5,3.358-7.5,7.5
			s3.357,7.5,7.5,7.5h59.335c-0.939,2.51-1.457,5.226-1.457,8.06v14.514h-57.878c-4.143,0-7.5,3.358-7.5,7.5
			c0,4.142,3.357,7.5,7.5,7.5H347.8v51.725H122.344c-4.444,0-8.062-3.616-8.062-8.06V23.061c0-4.444,3.616-8.06,8.062-8.06h131.889
			c4.143,0,7.5-3.358,7.5-7.5c0-4.142-3.357-7.5-7.5-7.5H67.959C55.243,0,44.898,10.346,44.898,23.061v465.877
			c0,12.716,10.346,23.061,23.061,23.061h54.386h232.955c0.041,0,0.08-0.005,0.12-0.006c2.005-0.033,3.861-0.87,5.184-2.191
			l104.301-104.3c1.333-1.332,2.196-3.245,2.196-5.303V273.502C467.102,269.358,463.744,266,459.602,266z M100.736,496.999H67.959
			c-4.444,0-8.06-3.616-8.06-8.06V23.061c0-4.444,3.615-8.06,8.06-8.06h32.777c-0.901,2.496-1.453,5.115-1.453,8.06v465.877
			C99.283,491.82,99.815,494.448,100.736,496.999z M362.801,486.391v-70.632c0-4.444,3.615-8.06,8.06-8.06
			c7.587,0,62.354,0,70.633,0C433.153,416.039,371.141,478.051,362.801,486.391z"/>
	</g>
</g>
<g>
</g>
<g>
</g>
<g>
</g>
<g>
</g>
<g>
</g>
<g>
</g>
<g>
</g>
<g>
</g>
<g>
</g>
<g>
</g>
<g>
</g>
<g>
</g>
<g>
</g>
<g>
</g>
<g>
</g>
</svg>
