<?xml version="1.0" encoding="iso-8859-1"?>
<!-- Generator: Adobe Illustrator 19.0.0, SVG Export Plug-In . SVG Version: 6.00 Build 0)  -->
<svg version="1.1" id="Capa_1" xmlns="http://www.w3.org/2000/svg" xmlns:xlink="http://www.w3.org/1999/xlink" x="0px" y="0px"
	 viewBox="0 0 495.984 495.984" style="enable-background:new 0 0 495.984 495.984;" xml:space="preserve">
<g>
	<g>
		<g>
			<path d="M288,31.992h-80c-1.817-0.001-3.581,0.617-5,1.752L85.192,127.992H8c-4.418,0-8,3.582-8,8v224c0,4.418,3.582,8,8,8
				h77.192L203,462.24c1.419,1.135,3.183,1.753,5,1.752h80c4.418,0,8-3.582,8-8v-416C296,35.574,292.418,31.992,288,31.992z
				 M280,447.992h-69.192L93,353.744c-1.419-1.135-3.183-1.753-5-1.752H16v-208h72c1.817,0.001,3.581-0.617,5-1.752l117.808-94.248
				H280V447.992z"/>
			<path d="M330.512,157.48c-0.064-0.067-0.13-0.132-0.196-0.196c-3.178-3.07-8.242-2.982-11.312,0.196
				c-3.069,3.178-2.982,8.242,0.196,11.312c0.003,0.003,0.005,0.005,0.008,0.008c43.737,43.741,43.733,114.655-0.008,158.392
				c-1.491,1.495-2.33,3.519-2.334,5.63c-0.01,4.418,3.564,8.008,7.982,8.018c2.127,0.006,4.167-0.841,5.664-2.352
				C380.492,288.502,380.492,207.466,330.512,157.48z"/>
			<path d="M375.768,112.224c-0.064-0.067-0.13-0.132-0.196-0.196c-3.178-3.07-8.242-2.982-11.312,0.196
				c-3.07,3.178-2.982,8.242,0.196,11.312c0.003,0.003,0.007,0.007,0.01,0.01c68.729,68.735,68.725,180.172-0.01,248.902
				c-1.499,1.5-2.342,3.534-2.342,5.654c-0.001,4.418,3.58,8.001,7.998,8.002c2.122,0,4.156-0.844,5.656-2.344
				c0.002-0.002,0.005-0.005,0.007-0.007C450.754,308.77,450.751,187.203,375.768,112.224z"/>
			<path d="M425.072,74.384c-3.075-3.048-8.016-3.097-11.151-0.11c-3.199,3.048-3.321,8.112-0.273,11.31
				c89.071,90.849,88.357,236.485-1.6,326.456c-1.499,1.5-2.342,3.534-2.342,5.654c-0.001,4.418,3.58,8.001,7.998,8.002
				c2.122,0,4.156-0.844,5.656-2.344C519.52,327.176,520.284,171.498,425.072,74.384z"/>
		</g>
	</g>
</g>
<g>
</g>
<g>
</g>
<g>
</g>
<g>
</g>
<g>
</g>
<g>
</g>
<g>
</g>
<g>
</g>
<g>
</g>
<g>
</g>
<g>
</g>
<g>
</g>
<g>
</g>
<g>
</g>
<g>
</g>
</svg>
